<?xml version="1.0" encoding="utf-8"?>
<svg viewBox="144.677 151.03 46.77 43.839" xmlns="http://www.w3.org/2000/svg">
  <path transform="matrix(1.016352, 0, 0, 1.044832, 143.669511, 147.899841)" d="M12.1 32.41L28.66 15.56C 29.4635 14.737181 30.564938 14.273266 31.715 14.273266C 32.865063 14.273266 33.9665 14.737181 34.77 15.56C 36.454273 17.291279 36.454273 20.048721 34.77 21.78L34.77 21.78L14.87 42C 11.26 45.68 6.21 45.88 3.21 42.83C 0.21000004 39.780003 0 35.56 4.15 31.37L4.15 31.37L28.9 6.16C 30.870821 4.1367207 33.575504 2.9955387 36.4 2.9955387C 39.2245 2.9955387 41.929184 4.1367207 43.9 6.16C 48.04503 10.406129 48.04503 17.183872 43.9 21.43L43.9 21.43L22.310001 43.43" stroke="#6577DE" stroke-linecap="square" fill="none" style="stroke-width: 3.88126px;"/>
</svg>