<svg xmlns="http://www.w3.org/2000/svg" xmlns:xlink="http://www.w3.org/1999/xlink" version="1.1" width="700" height="200" viewBox="0 0 700 200" xml:space="preserve">
<desc>Created with Fabric.js 3.5.0</desc>
<defs>
</defs>
<rect x="0" y="0" width="100%" height="100%" fill="rgba(18,14,67,0)"/>
<g transform="matrix(1.3763 0 0 1.3763 441.1223 108.3079)" id="185534">
<path style="stroke: none; stroke-width: 0; stroke-dasharray: none; stroke-linecap: butt; stroke-dashoffset: 0; stroke-linejoin: miter; stroke-miterlimit: 4; is-custom-font: none; font-file-url: none; fill: rgb(122,99,255); fill-rule: nonzero; opacity: 1;" vector-effect="non-scaling-stroke" transform=" translate(-184.8801, -44.3275)" d="M 33.25 68.85 C 28.66 68.85 24.3533 68 20.33 66.3 C 16.3633 64.5433 12.8783 62.1067 9.875 58.99 C 6.92833 55.8733 4.605 52.2467 2.905 48.11 C 1.205 43.9733 0.355 39.525 0.355 34.765 C 0.355 30.0617 1.17667 25.67 2.82 21.59 C 4.52 17.4533 6.87167 13.8267 9.875 10.71 C 12.8783 7.59333 16.3633 5.15666 20.33 3.4 C 24.2967 1.64333 28.6033 0.764999 33.25 0.764999 C 37.5 0.764999 41.24 1.36 44.47 2.55 C 47.7 3.68333 50.9017 5.55333 54.075 8.16 C 54.5283 8.5 54.84 8.89666 55.01 9.35 C 55.2367 9.74666 55.3217 10.1717 55.265 10.625 C 55.265 11.0217 55.18 11.4183 55.01 11.815 C 54.9533 12.665 54.585 13.345 53.905 13.855 C 53.2817 14.365 52.5167 14.6483 51.61 14.705 C 50.76 14.705 49.91 14.3933 49.06 13.77 C 46.9067 11.9 44.64 10.4833 42.26 9.52 C 39.88 8.55666 36.8767 8.075 33.25 8.075 C 29.7933 8.075 26.535 8.78333 23.475 10.2 C 20.4717 11.6167 17.8083 13.5433 15.485 15.98 C 13.1617 18.4167 11.3483 21.25 10.045 24.48 C 8.74167 27.71 8.09 31.1383 8.09 34.765 C 8.09 38.505 8.74167 41.99 10.045 45.22 C 11.3483 48.3933 13.1617 51.2267 15.485 53.72 C 17.8083 56.1567 20.4717 58.055 23.475 59.415 C 26.535 60.775 29.7933 61.455 33.25 61.455 C 36.2533 61.455 39.0867 60.9733 41.75 60.01 C 44.4133 58.99 46.935 57.5733 49.315 55.76 C 50.2217 55.08 51.1283 54.7967 52.035 54.91 C 52.9417 54.9667 53.7067 55.335 54.33 56.015 C 54.9533 56.6383 55.265 57.5167 55.265 58.65 C 55.265 59.16 55.18 59.67 55.01 60.18 C 54.84 60.6333 54.5283 61.0583 54.075 61.455 C 51.1283 64.005 47.87 65.875 44.3 67.065 C 40.7867 68.255 37.1033 68.85 33.25 68.85 Z M 79.1002 68 C 76.7202 68 74.5952 67.3483 72.7252 66.045 C 70.8552 64.7417 69.3819 62.9567 68.3052 60.69 C 67.2852 58.3667 66.7752 55.7033 66.7752 52.7 V 5.43999 C 66.7752 4.30666 67.1152 3.4 67.7952 2.72 C 68.5319 1.98333 69.4669 1.615 70.6002 1.615 C 71.7902 1.615 72.7252 1.98333 73.4052 2.72 C 74.1419 3.4 74.5102 4.30666 74.5102 5.43999 V 52.7 C 74.5102 54.91 74.9352 56.7233 75.7852 58.14 C 76.6919 59.5567 77.7969 60.265 79.1002 60.265 H 81.2252 C 82.3019 60.265 83.1519 60.6333 83.7752 61.37 C 84.3985 62.05 84.7102 62.985 84.7102 64.175 C 84.7102 65.3083 84.2285 66.2433 83.2652 66.98 C 82.3585 67.66 81.1685 68 79.6952 68 H 79.1002 Z M 98.3925 68 C 97.2025 68 96.2392 67.6317 95.5025 66.895 C 94.7659 66.1583 94.3975 65.2233 94.3975 64.09 V 25.415 C 94.3975 24.225 94.7659 23.29 95.5025 22.61 C 96.2392 21.8733 97.2025 21.505 98.3925 21.505 C 99.5259 21.505 100.461 21.8733 101.198 22.61 C 101.934 23.29 102.303 24.225 102.303 25.415 V 64.09 C 102.303 65.2233 101.934 66.1583 101.198 66.895 C 100.461 67.6317 99.5259 68 98.3925 68 Z M 98.3075 13.43 C 96.8909 13.43 95.6725 12.92 94.6525 11.9 C 93.6325 10.88 93.1225 9.63333 93.1225 8.16 C 93.1225 6.68666 93.6325 5.46833 94.6525 4.505 C 95.7292 3.485 96.9759 2.975 98.3925 2.975 C 99.7525 2.975 100.943 3.485 101.963 4.505 C 103.039 5.46833 103.578 6.68666 103.578 8.16 C 103.578 9.63333 103.068 10.88 102.048 11.9 C 101.028 12.92 99.7809 13.43 98.3075 13.43 Z M 122.522 87.89 C 121.389 87.89 120.454 87.5217 119.717 86.785 C 118.98 86.0483 118.612 85.1133 118.612 83.98 V 44.625 C 118.669 40.205 119.717 36.21 121.757 32.64 C 123.854 29.07 126.659 26.265 130.172 24.225 C 133.685 22.185 137.652 21.165 142.072 21.165 C 146.549 21.165 150.544 22.2133 154.057 24.31 C 157.627 26.35 160.432 29.155 162.472 32.725 C 164.569 36.2383 165.617 40.2617 165.617 44.795 C 165.617 49.2717 164.625 53.295 162.642 56.865 C 160.715 60.435 158.08 63.24 154.737 65.28 C 151.394 67.32 147.625 68.34 143.432 68.34 C 139.862 68.34 136.632 67.6033 133.742 66.13 C 130.852 64.6567 128.415 62.6733 126.432 60.18 V 83.98 C 126.432 85.1133 126.064 86.0483 125.327 86.785 C 124.647 87.5217 123.712 87.89 122.522 87.89 Z M 142.072 61.37 C 145.075 61.37 147.767 60.6617 150.147 59.245 C 152.584 57.7717 154.482 55.7883 155.842 53.295 C 157.259 50.745 157.967 47.9117 157.967 44.795 C 157.967 41.6217 157.259 38.7883 155.842 36.295 C 154.482 33.745 152.584 31.7617 150.147 30.345 C 147.767 28.8717 145.075 28.135 142.072 28.135 C 139.069 28.135 136.349 28.8717 133.912 30.345 C 131.532 31.8183 129.662 33.8017 128.302 36.295 C 126.942 38.7883 126.262 41.6217 126.262 44.795 C 126.262 47.9117 126.942 50.745 128.302 53.295 C 129.662 55.7883 131.532 57.7717 133.912 59.245 C 136.349 60.6617 139.069 61.37 142.072 61.37 Z M 242.971 68.085 C 241.838 68.085 240.874 67.7167 240.081 66.98 C 239.344 66.1867 238.976 65.2517 238.976 64.175 V 42.755 C 238.976 39.4117 238.353 36.6917 237.106 34.595 C 235.859 32.4417 234.188 30.855 232.091 29.835 C 229.994 28.7583 227.586 28.22 224.866 28.22 C 222.316 28.22 220.021 28.73 217.981 29.75 C 215.941 30.77 214.298 32.13 213.051 33.83 C 211.861 35.53 211.266 37.485 211.266 39.695 H 206.166 C 206.223 36.125 207.129 32.9517 208.886 30.175 C 210.643 27.3417 213.023 25.1317 216.026 23.545 C 219.029 21.9017 222.401 21.08 226.141 21.08 C 230.108 21.08 233.649 21.93 236.766 23.63 C 239.883 25.2733 242.348 27.71 244.161 30.94 C 245.974 34.17 246.881 38.1083 246.881 42.755 V 64.175 C 246.881 65.2517 246.484 66.1867 245.691 66.98 C 244.954 67.7167 244.048 68.085 242.971 68.085 Z M 207.356 68.085 C 206.223 68.085 205.288 67.7167 204.551 66.98 C 203.814 66.2433 203.446 65.3083 203.446 64.175 V 25.415 C 203.446 24.225 203.814 23.29 204.551 22.61 C 205.288 21.8733 206.223 21.505 207.356 21.505 C 208.546 21.505 209.481 21.8733 210.161 22.61 C 210.898 23.29 211.266 24.225 211.266 25.415 V 64.175 C 211.266 65.3083 210.898 66.2433 210.161 66.98 C 209.481 67.7167 208.546 68.085 207.356 68.085 Z M 282.299 68.34 C 277.766 68.34 273.714 67.3483 270.144 65.365 C 266.631 63.325 263.854 60.5483 261.814 57.035 C 259.831 53.465 258.839 49.385 258.839 44.795 C 258.839 40.1483 259.831 36.0683 261.814 32.555 C 263.854 28.985 266.631 26.2083 270.144 24.225 C 273.714 22.185 277.766 21.165 282.299 21.165 C 286.833 21.165 290.856 22.185 294.369 24.225 C 297.939 26.2083 300.716 28.985 302.699 32.555 C 304.739 36.0683 305.788 40.1483 305.844 44.795 C 305.844 49.385 304.824 53.465 302.784 57.035 C 300.744 60.5483 297.968 63.325 294.454 65.365 C 290.941 67.3483 286.889 68.34 282.299 68.34 Z M 282.299 61.37 C 285.416 61.37 288.164 60.6617 290.544 59.245 C 292.924 57.8283 294.794 55.8733 296.154 53.38 C 297.514 50.8867 298.194 48.025 298.194 44.795 C 298.194 41.565 297.514 38.7033 296.154 36.21 C 294.794 33.66 292.924 31.6767 290.544 30.26 C 288.164 28.8433 285.416 28.135 282.299 28.135 C 279.239 28.135 276.491 28.8433 274.054 30.26 C 271.674 31.6767 269.804 33.66 268.444 36.21 C 267.084 38.7033 266.404 41.565 266.404 44.795 C 266.404 48.025 267.084 50.8867 268.444 53.38 C 269.804 55.8733 271.674 57.8283 274.054 59.245 C 276.491 60.6617 279.239 61.37 282.299 61.37 Z M 326.713 68 C 325.863 68 325.098 67.7733 324.418 67.32 C 323.738 66.81 323.256 66.1867 322.973 65.45 L 310.138 26.945 C 309.741 25.3017 309.769 23.9983 310.223 23.035 C 310.676 22.015 311.639 21.505 313.113 21.505 C 314.076 21.505 314.869 21.76 315.493 22.27 C 316.173 22.78 316.711 23.63 317.108 24.82 L 328.243 59.33 H 325.693 L 336.063 24.48 C 336.346 23.5733 336.799 22.865 337.423 22.355 C 338.046 21.7883 338.896 21.505 339.973 21.505 C 340.993 21.505 341.814 21.7883 342.438 22.355 C 343.118 22.865 343.571 23.5733 343.798 24.48 L 352.893 57.8 H 351.533 L 362.158 24.82 C 362.838 22.61 364.141 21.505 366.068 21.505 C 367.541 21.505 368.533 22.0433 369.043 23.12 C 369.553 24.14 369.524 25.415 368.958 26.945 L 356.123 65.45 C 355.896 66.1867 355.443 66.81 354.763 67.32 C 354.139 67.7733 353.374 68 352.468 68 C 351.674 68 350.909 67.7733 350.173 67.32 C 349.436 66.81 348.983 66.1867 348.813 65.45 L 339.293 31.875 H 340.228 L 330.453 65.45 C 330.226 66.1867 329.744 66.81 329.008 67.32 C 328.328 67.7733 327.563 68 326.713 68 Z" stroke-linecap="round"/>
</g>
<g transform="matrix(1.2452 0 0 1.246 306.5731 94.0055)" id="955738">
<rect style="stroke: rgb(122,99,255); stroke-width: 8; stroke-dasharray: none; stroke-linecap: butt; stroke-dashoffset: 0; stroke-linejoin: miter; stroke-miterlimit: 4; is-custom-font: none; font-file-url: none; fill: none; fill-rule: nonzero; opacity: 1;" vector-effect="non-scaling-stroke" x="-105" y="-50.5" rx="0" ry="0" width="210" height="101"/>
</g>
<g transform="matrix(3.1761 0 0 3.2651 85.2833 100.0005)" id="166239">
<path style="stroke: rgb(101,119,222); stroke-width: 9; stroke-dasharray: none; stroke-linecap: round; stroke-dashoffset: 0; stroke-linejoin: miter; stroke-miterlimit: 10; is-custom-font: none; font-file-url: none; fill: none; fill-rule: nonzero; opacity: 1;" vector-effect="non-scaling-stroke" transform=" translate(-24.0003, -23.9745)" d="M 12.1 32.41 L 28.66 15.56 a 4.27 4.27 0 0 1 6.11 0 h 0 a 4.46 4.46 0 0 1 0 6.22 L 14.87 42 c -3.61 3.68 -8.66 3.88 -11.66 0.83 S 0 35.56 4.15 31.37 L 28.9 6.16 a 10.47 10.47 0 0 1 15 0 h 0 a 10.93 10.93 0 0 1 0 15.27 l -21.59 22" stroke-linecap="round"/>
</g>
</svg>