<?xml version="1.0" encoding="utf-8"?>
<svg viewBox="140.772 140.949 224 64" xmlns="http://www.w3.org/2000/svg">
  <g transform="matrix(0.32, 0, 0, 0.32, 140.771606, 140.949005)">
    <path d="M0 0L700 0L700 200L0 200z" stroke="none" fill="#120E43" fill-rule="nonzero" fill-opacity="0"/>
    <g transform="matrix(1.3763 0 0 1.3763 441.1223 108.3079)">
      <path transform="matrix(1 0 0 1 -184.8801 -44.3275)" d="M33.25 68.85C 28.66 68.85 24.3533 68 20.33 66.3C 16.3633 64.5433 12.8783 62.1067 9.875 58.99C 6.92833 55.8733 4.605 52.2467 2.905 48.11C 1.205 43.9733 0.355 39.525 0.355 34.765C 0.355 30.0617 1.17667 25.67 2.82 21.59C 4.52 17.4533 6.87167 13.8267 9.875 10.71C 12.8783 7.59333 16.3633 5.15666 20.33 3.4C 24.2967 1.64333 28.6033 0.764999 33.25 0.764999C 37.5 0.764999 41.24 1.36 44.47 2.55C 47.7 3.68333 50.9017 5.55333 54.075 8.16C 54.5283 8.5 54.84 8.89666 55.01 9.35C 55.2367 9.74666 55.3217 10.1717 55.265 10.625C 55.265 11.0217 55.18 11.4183 55.01 11.815C 54.9533 12.665 54.585 13.345 53.905 13.855C 53.2817 14.365 52.5167 14.6483 51.61 14.705C 50.76 14.705 49.91 14.3933 49.06 13.77C 46.9067 11.9 44.64 10.4833 42.26 9.52C 39.88 8.55666 36.8767 8.075 33.25 8.075C 29.7933 8.075 26.535 8.78333 23.475 10.2C 20.4717 11.6167 17.8083 13.5433 15.485 15.98C 13.1617 18.4167 11.3483 21.25 10.045 24.48C 8.74167 27.71 8.09 31.1383 8.09 34.765C 8.09 38.505 8.74167 41.99 10.045 45.22C 11.3483 48.3933 13.1617 51.2267 15.485 53.72C 17.8083 56.1567 20.4717 58.055 23.475 59.415C 26.535 60.775 29.7933 61.455 33.25 61.455C 36.2533 61.455 39.0867 60.9733 41.75 60.01C 44.4133 58.99 46.935 57.5733 49.315 55.76C 50.2217 55.08 51.1283 54.7967 52.035 54.91C 52.9417 54.9667 53.7067 55.335 54.33 56.015C 54.9533 56.6383 55.265 57.5167 55.265 58.65C 55.265 59.16 55.18 59.67 55.01 60.18C 54.84 60.6333 54.5283 61.0583 54.075 61.455C 51.1283 64.005 47.87 65.875 44.3 67.065C 40.7867 68.255 37.1033 68.85 33.25 68.85zM79.1002 68C 76.7202 68 74.5952 67.3483 72.7252 66.045C 70.8552 64.7417 69.3819 62.9567 68.3052 60.69C 67.2852 58.3667 66.7752 55.7033 66.7752 52.7L66.7752 52.7L66.7752 5.43999C 66.7752 4.30666 67.1152 3.4 67.7952 2.72C 68.5319 1.98333 69.4669 1.615 70.6002 1.615C 71.7902 1.615 72.7252 1.98333 73.4052 2.72C 74.1419 3.4 74.5102 4.30666 74.5102 5.43999L74.5102 5.43999L74.5102 52.7C 74.5102 54.91 74.9352 56.7233 75.7852 58.14C 76.6919 59.5567 77.7969 60.265 79.1002 60.265L79.1002 60.265L81.2252 60.265C 82.3019 60.265 83.1519 60.6333 83.7752 61.37C 84.3985 62.05 84.7102 62.985 84.7102 64.175C 84.7102 65.3083 84.2285 66.2433 83.2652 66.98C 82.3585 67.66 81.1685 68 79.6952 68L79.6952 68L79.1002 68zM98.3925 68C 97.2025 68 96.2392 67.6317 95.5025 66.895C 94.7659 66.1583 94.3975 65.2233 94.3975 64.09L94.3975 64.09L94.3975 25.415C 94.3975 24.225 94.7659 23.29 95.5025 22.61C 96.2392 21.8733 97.2025 21.505 98.3925 21.505C 99.5259 21.505 100.461 21.8733 101.198 22.61C 101.934 23.29 102.303 24.225 102.303 25.415L102.303 25.415L102.303 64.09C 102.303 65.2233 101.934 66.1583 101.198 66.895C 100.461 67.6317 99.5259 68 98.3925 68zM98.3075 13.43C 96.8909 13.43 95.6725 12.92 94.6525 11.9C 93.6325 10.88 93.1225 9.63333 93.1225 8.16C 93.1225 6.68666 93.6325 5.46833 94.6525 4.505C 95.7292 3.485 96.9759 2.975 98.3925 2.975C 99.7525 2.975 100.943 3.485 101.963 4.505C 103.039 5.46833 103.578 6.68666 103.578 8.16C 103.578 9.63333 103.068 10.88 102.048 11.9C 101.028 12.92 99.7809 13.43 98.3075 13.43zM122.522 87.89C 121.389 87.89 120.454 87.5217 119.717 86.785C 118.98 86.0483 118.612 85.1133 118.612 83.98L118.612 83.98L118.612 44.625C 118.669 40.205 119.717 36.21 121.757 32.64C 123.854 29.07 126.659 26.265 130.172 24.225C 133.685 22.185 137.652 21.165 142.072 21.165C 146.549 21.165 150.544 22.2133 154.057 24.31C 157.627 26.35 160.432 29.155 162.472 32.725C 164.569 36.2383 165.617 40.2617 165.617 44.795C 165.617 49.2717 164.625 53.295 162.642 56.865C 160.715 60.435 158.08 63.24 154.737 65.28C 151.394 67.32 147.625 68.34 143.432 68.34C 139.862 68.34 136.632 67.6033 133.742 66.13C 130.852 64.6567 128.415 62.6733 126.432 60.18L126.432 60.18L126.432 83.98C 126.432 85.1133 126.064 86.0483 125.327 86.785C 124.647 87.5217 123.712 87.89 122.522 87.89zM142.072 61.37C 145.075 61.37 147.767 60.6617 150.147 59.245C 152.584 57.7717 154.482 55.7883 155.842 53.295C 157.259 50.745 157.967 47.9117 157.967 44.795C 157.967 41.6217 157.259 38.7883 155.842 36.295C 154.482 33.745 152.584 31.7617 150.147 30.345C 147.767 28.8717 145.075 28.135 142.072 28.135C 139.069 28.135 136.349 28.8717 133.912 30.345C 131.532 31.8183 129.662 33.8017 128.302 36.295C 126.942 38.7883 126.262 41.6217 126.262 44.795C 126.262 47.9117 126.942 50.745 128.302 53.295C 129.662 55.7883 131.532 57.7717 133.912 59.245C 136.349 60.6617 139.069 61.37 142.072 61.37zM242.971 68.085C 241.838 68.085 240.874 67.7167 240.081 66.98C 239.344 66.1867 238.976 65.2517 238.976 64.175L238.976 64.175L238.976 42.755C 238.976 39.4117 238.353 36.6917 237.106 34.595C 235.859 32.4417 234.188 30.855 232.091 29.835C 229.994 28.7583 227.586 28.22 224.866 28.22C 222.316 28.22 220.021 28.73 217.981 29.75C 215.941 30.77 214.298 32.13 213.051 33.83C 211.861 35.53 211.266 37.485 211.266 39.695L211.266 39.695L206.166 39.695C 206.223 36.125 207.129 32.9517 208.886 30.175C 210.643 27.3417 213.023 25.1317 216.026 23.545C 219.029 21.9017 222.401 21.08 226.141 21.08C 230.108 21.08 233.649 21.93 236.766 23.63C 239.883 25.2733 242.348 27.71 244.161 30.94C 245.974 34.17 246.881 38.1083 246.881 42.755L246.881 42.755L246.881 64.175C 246.881 65.2517 246.484 66.1867 245.691 66.98C 244.954 67.7167 244.048 68.085 242.971 68.085zM207.356 68.085C 206.223 68.085 205.288 67.7167 204.551 66.98C 203.814 66.2433 203.446 65.3083 203.446 64.175L203.446 64.175L203.446 25.415C 203.446 24.225 203.814 23.29 204.551 22.61C 205.288 21.8733 206.223 21.505 207.356 21.505C 208.546 21.505 209.481 21.8733 210.161 22.61C 210.898 23.29 211.266 24.225 211.266 25.415L211.266 25.415L211.266 64.175C 211.266 65.3083 210.898 66.2433 210.161 66.98C 209.481 67.7167 208.546 68.085 207.356 68.085zM282.299 68.34C 277.766 68.34 273.714 67.3483 270.144 65.365C 266.631 63.325 263.854 60.5483 261.814 57.035C 259.831 53.465 258.839 49.385 258.839 44.795C 258.839 40.1483 259.831 36.0683 261.814 32.555C 263.854 28.985 266.631 26.2083 270.144 24.225C 273.714 22.185 277.766 21.165 282.299 21.165C 286.833 21.165 290.856 22.185 294.369 24.225C 297.939 26.2083 300.716 28.985 302.699 32.555C 304.739 36.0683 305.788 40.1483 305.844 44.795C 305.844 49.385 304.824 53.465 302.784 57.035C 300.744 60.5483 297.968 63.325 294.454 65.365C 290.941 67.3483 286.889 68.34 282.299 68.34zM282.299 61.37C 285.416 61.37 288.164 60.6617 290.544 59.245C 292.924 57.8283 294.794 55.8733 296.154 53.38C 297.514 50.8867 298.194 48.025 298.194 44.795C 298.194 41.565 297.514 38.7033 296.154 36.21C 294.794 33.66 292.924 31.6767 290.544 30.26C 288.164 28.8433 285.416 28.135 282.299 28.135C 279.239 28.135 276.491 28.8433 274.054 30.26C 271.674 31.6767 269.804 33.66 268.444 36.21C 267.084 38.7033 266.404 41.565 266.404 44.795C 266.404 48.025 267.084 50.8867 268.444 53.38C 269.804 55.8733 271.674 57.8283 274.054 59.245C 276.491 60.6617 279.239 61.37 282.299 61.37zM326.713 68C 325.863 68 325.098 67.7733 324.418 67.32C 323.738 66.81 323.256 66.1867 322.973 65.45L322.973 65.45L310.138 26.945C 309.741 25.3017 309.769 23.9983 310.223 23.035C 310.676 22.015 311.639 21.505 313.113 21.505C 314.076 21.505 314.869 21.76 315.493 22.27C 316.173 22.78 316.711 23.63 317.108 24.82L317.108 24.82L328.243 59.33L325.693 59.33L336.063 24.48C 336.346 23.5733 336.799 22.865 337.423 22.355C 338.046 21.7883 338.896 21.505 339.973 21.505C 340.993 21.505 341.814 21.7883 342.438 22.355C 343.118 22.865 343.571 23.5733 343.798 24.48L343.798 24.48L352.893 57.8L351.533 57.8L362.158 24.82C 362.838 22.61 364.141 21.505 366.068 21.505C 367.541 21.505 368.533 22.0433 369.043 23.12C 369.553 24.14 369.524 25.415 368.958 26.945L368.958 26.945L356.123 65.45C 355.896 66.1867 355.443 66.81 354.763 67.32C 354.139 67.7733 353.374 68 352.468 68C 351.674 68 350.909 67.7733 350.173 67.32C 349.436 66.81 348.983 66.1867 348.813 65.45L348.813 65.45L339.293 31.875L340.228 31.875L330.453 65.45C 330.226 66.1867 329.744 66.81 329.008 67.32C 328.328 67.7733 327.563 68 326.713 68z" stroke="none" fill="#7A63FF" fill-rule="nonzero"/>
    </g>
    <g transform="matrix(1.2452 0 0 1.246 306.5731 94.0055)">
      <path d="M-105 -50.5C -105 -50.5 -105 -50.5 -105 -50.5L-105 -50.5L105 -50.5C 105 -50.5 105 -50.5 105 -50.5L105 -50.5L105 50.5C 105 50.5 105 50.5 105 50.5L105 50.5L-105 50.5C -105 50.5 -105 50.5 -105 50.5L-105 50.5L-105 -50.5z" stroke="#7A63FF" stroke-width="8" fill="none"/>
    </g>
    <g transform="matrix(3.1761 0 0 3.2651 85.2833 100.0005)">
      <path transform="matrix(1 0 0 1 -24.0003 -23.9745)" d="M12.1 32.41L28.66 15.56C 29.4635 14.737181 30.564938 14.273266 31.715 14.273266C 32.865063 14.273266 33.9665 14.737181 34.77 15.56C 36.454273 17.291279 36.454273 20.048721 34.77 21.78L34.77 21.78L14.87 42C 11.26 45.68 6.21 45.88 3.21 42.83C 0.21000004 39.780003 0 35.56 4.15 31.37L4.15 31.37L28.9 6.16C 30.870821 4.1367207 33.575504 2.9955387 36.4 2.9955387C 39.2245 2.9955387 41.929184 4.1367207 43.9 6.16C 48.04503 10.406129 48.04503 17.183872 43.9 21.43L43.9 21.43L22.310001 43.43" stroke="#6577DE" stroke-linecap="square" fill="none" style="stroke-width: 3.88126px;"/>
    </g>
  </g>
</svg>